<?xml version="1.0" standalone="no"?>
<!DOCTYPE svg PUBLIC "-//W3C//DTD SVG 20010904//EN"
 "http://www.w3.org/TR/2001/REC-SVG-20010904/DTD/svg10.dtd">
<svg version="1.0" xmlns="http://www.w3.org/2000/svg"
 width="8000.000000pt" height="8000.000000pt" viewBox="0 0 8000.000000 8000.000000"
 preserveAspectRatio="xMidYMid meet">
<metadata>
Created by potrace 1.16, written by Peter Selinger 2001-2019
</metadata>
<g transform="translate(0.000000,8000.000000) scale(0.100000,-0.100000)"
fill="#000000" stroke="none">
<path d="M39275 71694 c-531 -13 -1077 -39 -1460 -69 -793 -64 -1611 -188
-1935 -295 -581 -190 -1075 -660 -1295 -1230 -19 -47 -252 -773 -520 -1615
-267 -841 -515 -1621 -551 -1732 -41 -128 -70 -203 -78 -203 -7 0 -145 -38
-307 -84 -1830 -524 -3642 -1281 -5295 -2211 l-181 -101 -1359 703 c-1937
1003 -1953 1012 -2119 1066 -436 141 -889 145 -1310 10 -314 -100 -521 -223
-1080 -638 -749 -556 -1532 -1258 -2555 -2291 -871 -880 -1471 -1560 -1987
-2254 -444 -598 -571 -823 -664 -1174 -49 -187 -63 -309 -63 -531 0 -367 67
-643 239 -985 40 -80 403 -784 807 -1565 404 -781 756 -1461 782 -1512 l47
-92 -119 -213 c-952 -1702 -1715 -3548 -2232 -5399 l-52 -186 -1646 -523
c-906 -288 -1712 -545 -1792 -572 -458 -155 -822 -436 -1092 -843 -221 -332
-308 -614 -417 -1358 -147 -995 -198 -1944 -188 -3505 6 -848 11 -1042 42
-1562 62 -1015 210 -2030 349 -2390 211 -546 639 -980 1187 -1205 35 -14 849
-276 1809 -581 960 -306 1746 -557 1747 -558 2 -1 27 -90 57 -197 509 -1827
1277 -3685 2223 -5377 l125 -223 -793 -1532 c-968 -1870 -918 -1770 -973
-1936 -178 -537 -141 -1115 104 -1616 151 -311 671 -1016 1212 -1645 392 -456
764 -855 1328 -1424 1186 -1196 2116 -2001 2995 -2591 211 -142 380 -228 567
-290 230 -75 421 -105 668 -105 300 0 579 56 839 169 47 21 811 413 1696 871
886 458 1615 833 1620 833 6 0 75 -38 155 -83 1625 -928 3629 -1759 5463
-2266 l178 -49 69 -215 c38 -118 288 -903 555 -1745 268 -841 502 -1568 521
-1615 122 -295 326 -578 568 -786 246 -212 538 -369 839 -449 317 -85 1070
-196 1702 -250 1330 -113 3260 -113 4590 0 711 61 1518 185 1806 279 572 186
1041 611 1285 1166 27 61 246 735 535 1644 270 848 521 1638 559 1756 l69 215
178 49 c1834 507 3838 1338 5463 2266 80 45 150 83 155 83 6 0 739 -377 1630
-838 891 -462 1667 -858 1725 -881 278 -113 559 -162 869 -151 436 15 781 133
1183 403 863 581 1801 1393 2978 2580 1103 1112 1845 1985 2390 2809 256 387
365 743 364 1190 0 273 -31 461 -119 716 -48 137 -36 115 -959 1896 l-798
1542 125 223 c593 1061 1136 2228 1555 3343 248 660 492 1404 668 2034 30 107
55 196 57 197 1 2 788 252 1747 558 960 305 1774 567 1810 581 618 253 1078
776 1254 1427 34 125 98 473 141 770 81 558 129 1102 166 1878 17 352 23 1889
10 2327 -28 913 -82 1584 -182 2263 -39 263 -91 552 -129 707 -89 370 -277
701 -554 979 -190 189 -415 344 -648 444 -123 53 -91 43 -2175 705 l-1441 458
-52 186 c-517 1851 -1280 3697 -2232 5399 l-119 213 56 110 c31 61 406 787
834 1613 428 826 796 1544 818 1596 203 473 224 1010 59 1505 -78 233 -153
374 -349 660 -545 792 -1247 1609 -2257 2629 -1174 1185 -2051 1953 -2915
2550 -318 220 -452 293 -689 371 -229 76 -410 105 -666 105 -257 0 -435 -28
-675 -107 -166 -55 -198 -71 -2119 -1066 l-1359 -703 -181 101 c-1327 747
-2793 1398 -4241 1883 -434 146 -1314 412 -1361 412 -15 0 26 -128 -599 1840
-302 951 -546 1703 -574 1767 -280 654 -855 1109 -1581 1252 -746 146 -1511
226 -2600 272 -237 9 -1671 19 -1935 13z m1320 -10804 c2669 -93 5173 -720
7530 -1885 1775 -878 3351 -2002 4754 -3389 579 -573 982 -1020 1460 -1616
1710 -2134 2928 -4644 3540 -7294 247 -1067 382 -2029 453 -3226 18 -292 18
-1578 0 -1870 -46 -778 -112 -1390 -222 -2060 -593 -3610 -2268 -6977 -4791
-9630 -1675 -1761 -3635 -3151 -5824 -4132 -1963 -880 -4063 -1403 -6220
-1552 -459 -32 -717 -40 -1275 -40 -558 0 -816 8 -1275 40 -4002 276 -7776
1845 -10800 4489 -796 696 -1588 1522 -2248 2345 -1842 2297 -3096 4980 -3672
7854 -176 879 -277 1685 -337 2686 -18 292 -18 1578 0 1870 59 995 156 1771
328 2645 471 2383 1420 4660 2788 6685 555 822 1198 1623 1868 2330 382 403
889 891 1278 1231 1835 1603 3962 2822 6260 3589 2046 683 4262 1004 6405 930z"/>
<path d="M39585 54024 c-1777 -92 -3063 -636 -3942 -1671 -576 -678 -946
-1586 -1083 -2655 -45 -353 -52 -501 -57 -1142 l-5 -618 -32 7 c-234 50 -466
21 -672 -83 -132 -67 -275 -194 -363 -324 -50 -74 -109 -205 -132 -293 -30
-115 -36 -294 -14 -426 102 -617 523 -1588 881 -2034 120 -150 195 -225 342
-342 20 -16 26 -40 47 -190 156 -1080 615 -2098 1336 -2963 878 -1053 2054
-1781 3264 -2019 322 -64 455 -75 845 -76 378 0 475 7 790 61 780 131 1602
495 2295 1017 416 312 825 714 1139 1117 523 671 892 1416 1096 2215 62 244
101 452 145 781 5 37 14 47 92 110 237 190 480 536 709 1009 211 437 391 964
449 1314 22 132 16 311 -14 426 -82 310 -322 568 -626 672 -171 58 -355 68
-541 28 l-32 -7 -5 618 c-5 612 -9 713 -47 1054 -145 1296 -643 2373 -1435
3103 -820 756 -1890 1174 -3310 1292 -179 15 -942 28 -1120 19z"/>
<path d="M36960 38927 c-1660 -470 -3329 -1193 -4650 -2015 -349 -217 -770
-507 -1000 -690 -136 -108 -445 -422 -583 -591 -877 -1080 -1488 -2671 -1696
-4416 -35 -293 -71 -757 -71 -917 l0 -67 148 -133 c1232 -1113 2659 -2048
4177 -2736 2570 -1164 5408 -1636 8255 -1371 3470 322 6764 1769 9353 4107
l147 133 0 67 c0 160 -36 624 -71 917 -208 1745 -819 3336 -1696 4416 -138
169 -447 483 -583 591 -339 269 -924 656 -1435 950 -1208 694 -2773 1350
-4131 1731 l-122 34 -717 -1731 c-395 -952 -723 -1742 -730 -1755 -12 -23 -12
-23 -42 30 -80 141 -1106 2094 -1106 2103 0 9 364 591 590 945 26 41 30 52 16
47 -105 -41 -398 -105 -608 -133 -182 -24 -628 -24 -810 0 -210 28 -503 92
-608 133 -14 5 -10 -6 16 -47 225 -352 590 -936 590 -945 0 -9 -1027 -1964
-1106 -2103 -23 -41 -32 -50 -38 -38 -5 8 -333 797 -729 1753 -397 956 -722
1739 -723 1740 -1 0 -18 -4 -37 -9z"/>
</g>
</svg>
